:version 1.10
:name ASF
:units
  mass 1
  length 1
  angle deg
:documentation
  ASF file generated by Kaydara
:root
  axis xyz
  order  tx ty tz rx ry rz
  position 0 0 0
  orientation 0 0 0
:bonedata
  begin
    id 1
    name RightUpLegDummy
    direction -0.718183 -0.695806 0.00816078
    length 4.904
    axis 0 0 0 xyz
  end
  begin
    id 2
    name RightUpLeg
    direction 3.53373e-006 -0.995788 0.0916898
    length 17.4976
    axis -3.49089 -0.000906625 0.000286804 xyz
    dof rx ry rz
  end
  begin
    id 3
    name RightLeg
    direction 0.00371092 -0.995096 -0.0988419
    length 16.5821
    axis 3.68512 0.0193738 -0.131023 xyz
    dof rx ry rz
  end
  begin
    id 4
    name RightFoot
    direction 0.00079151 -0.46099 0.887405
    length 3.77069
    axis 4.81691e-005 -0.120479 -0.188788 xyz
    dof rx ry rz
  end
  begin
    id 5
    name RightToes
    direction 0 0 0
    length 0
    axis 0 0 0 xyz
    dof rx ry rz
  end
  begin
    id 6
    name SpineDummy
    direction 8.3039e-015 1 4.57515e-016
    length 4.6813
    axis 0 0 0 xyz
  end
  begin
    id 7
    name Spine
    direction -3.15643e-008 0.999988 0.00495137
    length 10.1015
    axis -0.001389 0.000121418 2.40972e-006 xyz
    dof rx ry rz
  end
  begin
    id 8
    name Spine1
    direction 0 0 0
    length 0
    axis -0.001389 0.000121451 1.30017e-006 xyz
    dof rx ry rz
  end
  begin
    id 9
    name HEadDummy
    direction -1.99912e-008 0.999999 0.00127422
    length 3.43865
    axis -0.001389 0.000121451 1.30017e-006 xyz
  end
  begin
    id 10
    name HEad
    direction 0 0 0
    length 0
    axis 0 0 0 xyz
    dof rx ry rz
  end
  begin
    id 11
    name LeftShoulder1Dummy
    direction 0.998891 -0.0402509 -0.0244456
    length 3.5433
    axis -0.001389 0.000121451 1.30017e-006 xyz
  end
  begin
    id 12
    name LeftShoulder1
    direction 0.99951 -0.000327763 0.0313091
    length 4.05031
    axis -0.001389 0.000121451 1.30017e-006 xyz
    dof rx ry rz
  end
  begin
    id 13
    name LeftArm
    direction 0.998561 -0.00100056 -0.0536182
    length 10.3537
    axis -23.1894 0.134784 0.967509 xyz
    dof rx ry rz
  end
  begin
    id 14
    name LeftForeArm
    direction 0.998903 0.00866432 0.046012
    length 8.70632
    axis -9.91835 -0.06569 -0.177794 xyz
    dof rx ry rz
  end
  begin
    id 15
    name LeftHand
    direction 0 0 0
    length 0
    axis 0 0 0 xyz
    dof rx ry rz
  end
  begin
    id 16
    name RightShoulderDummy
    direction -0.998891 -0.0402509 -0.0244414
    length 3.5433
    axis -0.001389 0.000121451 1.30017e-006 xyz
  end
  begin
    id 17
    name RightShoulder
    direction -0.99951 -0.000327807 0.0313133
    length 4.05031
    axis 0.215806 0.000203643 -0.0068026 xyz
    dof rx ry rz
  end
  begin
    id 18
    name RightArm
    direction -0.998573 -0.000999564 -0.053403
    length 10.3947
    axis -23.2009 -0.134239 -0.964101 xyz
    dof rx ry rz
  end
  begin
    id 19
    name RightForeArm
    direction -0.998898 0.00868028 0.0461306
    length 8.68355
    axis -9.92322 0.0658061 0.178868 xyz
    dof rx ry rz
  end
  begin
    id 20
    name RightHand
    direction 0 0 0
    length 0
    axis 0 0 0 xyz
    dof rx ry rz
  end
  begin
    id 21
    name LeftUpLegDummy
    direction 0.718183 -0.695806 0.00816078
    length 4.904
    axis 0 0 0 xyz
  end
  begin
    id 22
    name LeftUpLeg
    direction -6.81752e-006 -0.995793 0.0916337
    length 17.4976
    axis -3.48766 0.00143442 -0.000524262 xyz
    dof rx ry rz
  end
  begin
    id 23
    name LeftLeg
    direction -0.00601358 -0.995091 -0.0987824
    length 16.5821
    axis 3.68178 -0.00654042 -0.000285133 xyz
    dof rx ry rz
  end
  begin
    id 24
    name LeftFoot
    direction -0.00417578 -0.460984 0.887399
    length 3.77069
    axis 1.87233e-006 4.66016e-005 -8.6538e-006 xyz
    dof rx ry rz
  end
  begin
    id 25
    name LeftToes
    direction 0 0 0
    length 0
    axis 0 0 0 xyz
    dof rx ry rz
  end
:hierarchy
  begin
    root RightUpLegDummy SpineDummy LeftUpLegDummy
    RightUpLegDummy RightUpLeg
    RightUpLeg RightLeg
    RightLeg RightFoot
    RightFoot RightToes
    SpineDummy Spine
    Spine Spine1
    Spine1 HEadDummy LeftShoulder1Dummy RightShoulderDummy
    HEadDummy HEad
    LeftShoulder1Dummy LeftShoulder1
    LeftShoulder1 LeftArm
    LeftArm LeftForeArm
    LeftForeArm LeftHand
    RightShoulderDummy RightShoulder
    RightShoulder RightArm
    RightArm RightForeArm
    RightForeArm RightHand
    LeftUpLegDummy LeftUpLeg
    LeftUpLeg LeftLeg
    LeftLeg LeftFoot
    LeftFoot LeftToes
  end

:SAMPLES-PER-SECOND 30
:FULLY-SPECIFIED
:DEGREES
938
root  7.68594 37.7542 12.0516 -27.9757 89.7972 -28.723
RightUpLeg  -31.4494 -17.3135 -6.46823
RightLeg  44.8368 8.69682 8.84548
RightFoot  -3.32397 -1.44415 20.0413
RightToes  0.000481921 0.542163 -0.142578
Spine  45.8444 -0.180008 1.93965
Spine1  -11.6945 0.590554 1.64031
HEad  -33.1594 1.18905 0.1847
LeftShoulder1  8.08055 -14.4274 -38.8729
LeftArm  0.305855 -11.4526 -38.771
LeftForeArm  -176.171 -60.0389 -164.025
LeftHand  -0.25398 0.0180481 5.50724
RightShoulder  4.64662 10.0894 28.1787
RightArm  0.81792 5.59743 45.5032
RightForeArm  165.702 60.8277 161.854
RightHand  -1.29589 3.0772 -17.9269
LeftUpLeg  -27.3588 10.6063 4.40209
LeftLeg  36.9995 3.78863 3.43834
LeftFoot  -8.74787 0.209921 -6.95735
LeftToes  1.06245e-005 4.65868e-005 -8.65517e-006
939
root  7.72249 37.8372 12.309 -0.977966 89.686 -1.78592
RightUpLeg  -30.7529 -16.0852 -7.92348
RightLeg  43.9055 6.45456 6.34533
RightFoot  -5.88315 -0.847416 16.5337
RightToes  0.000481921 0.542163 -0.142578
Spine  45.6565 -0.290231 2.18164
Spine1  -11.6901 0.527703 1.77629
HEad  -32.926 1.15308 -0.0917849
LeftShoulder1  8.1372 -14.4339 -39.1589
LeftArm  0.187554 -11.359 -38.3904
LeftForeArm  -176.332 -59.9707 -164.054
LeftHand  -0.25398 0.0180481 5.50724
RightShoulder  4.60528 10.019 28.0473
RightArm  0.907259 5.63176 45.5452
RightForeArm  165.979 60.7774 161.916
RightHand  -1.29011 3.06247 -17.879
LeftUpLeg  -26.8907 10.7535 4.76833
LeftLeg  36.1104 3.82843 3.36803
LeftFoot  -8.21405 0.239669 -6.97332
LeftToes  1.06245e-005 4.65868e-005 -8.65517e-006
940
root  7.7611 37.9412 12.6273 1.36627 89.6139 0.489349
RightUpLeg  -29.17 -14.791 -9.02633
RightLeg  40.9273 0.722374 0.434149
RightFoot  -8.27416 -0.338617 10.7751
RightToes  0.000481921 0.542163 -0.142578
Spine  45.4774 -0.481104 2.6665
Spine1  -11.5767 0.42214 1.94582
HEad  -32.9331 1.13611 -0.0875403
LeftShoulder1  8.10782 -14.3577 -39.1864
LeftArm  0.255969 -11.3649 -38.3452
LeftForeArm  -176.375 -59.8581 -164.12
LeftHand  -0.25398 0.0180481 5.50724
RightShoulder  4.5732 9.92996 28.0343
RightArm  0.82853 5.51388 45.5781
RightForeArm  166.153 60.6965 161.988
RightHand  -1.28585 3.0483 -17.8501
LeftUpLeg  -26.3222 10.7437 5.32174
LeftLeg  34.997 3.97212 3.35243
LeftFoot  -7.47265 0.290306 -7.25735
LeftToes  1.06245e-005 4.65868e-005 -8.65517e-006
941
root  7.81405 37.9697 13.0574 31.8413 89.6543 30.958
RightUpLeg  -27.0082 -13.9323 -9.96469
RightLeg  37.1312 -4.95296 -4.30155
RightFoot  -8.75254 -0.242281 8.15464
RightToes  0.000481921 0.542163 -0.142578
Spine  45.2349 -0.61964 2.93129
Spine1  -11.4599 0.305383 2.04579
HEad  -33.1283 1.15774 0.0580165
LeftShoulder1  8.01252 -14.2369 -38.9695
LeftArm  0.439307 -11.4097 -38.5796
LeftForeArm  -176.296 -59.7592 -164.188
LeftHand  -0.25398 0.0180481 5.50724
RightShoulder  4.58206 9.87769 28.2393
RightArm  0.606849 5.24297 45.4306
RightForeArm  166.143 60.6003 162.054
RightHand  -1.30049 3.11502 -17.9126
LeftUpLeg  -25.8944 10.6193 5.90846
LeftLeg  34.2815 3.79895 3.14505
LeftFoot  -6.91596 0.35021 -7.98427
LeftToes  1.06245e-005 4.65868e-005 -8.65517e-006
942
root  7.87188 37.9531 13.5936 53.5822 89.5573 52.5852
RightUpLeg  -25.5832 -14.1018 -10.0852
RightLeg  34.3041 -7.18724 -5.5206
RightFoot  -7.37525 -0.340268 8.34465
RightToes  0.000481921 0.542163 -0.142578
Spine  44.9985 -0.659205 3.16409
Spine1  -11.3602 0.320859 2.00297
HEad  -33.4104 1.11857 0.0779862
LeftShoulder1  7.96412 -14.1753 -38.8585
LeftArm  0.533824 -11.4369 -38.6954
LeftForeArm  -176.091 -59.5976 -164.304
LeftHand  -0.25398 0.0180481 5.50724
RightShoulder  4.59455 9.83533 28.4471
RightArm  0.406523 5.00502 45.2438
RightForeArm  166.147 60.5571 162.085
RightHand  -1.31898 3.21516 -17.9589
LeftUpLeg  -25.7014 10.3254 6.67489
LeftLeg  33.8359 3.83135 3.12018
LeftFoot  -6.42746 0.406233 -8.56509
LeftToes  1.06245e-005 4.65868e-005 -8.65517e-006
943
root  7.90303 37.9308 14.186 15.5826 89.1878 14.4085
RightUpLeg  -25.7982 -15.1981 -8.7537
RightLeg  33.6984 -6.33333 -4.77303
RightFoot  -5.68452 -0.409707 7.54857
RightToes  0.000481921 0.542163 -0.142578
Spine  44.8535 -0.646577 3.73682
Spine1  -11.2255 0.543309 1.7917
HEad  -33.7536 1.16349 -0.137972
LeftShoulder1  7.99327 -14.1825 -38.9983
LeftArm  0.286547 -11.4144 -38.5179
LeftForeArm  -175.956 -59.2846 -164.504
LeftHand  -0.25398 0.0180481 5.50724
RightShoulder  4.58712 9.82518 28.417
RightArm  0.437543 5.19761 45.2994
RightForeArm  166.177 60.7063 161.984
RightHand  -1.32167 3.25662 -17.9124
LeftUpLeg  -25.613 9.97261 7.96985
LeftLeg  33.5979 4.61632 3.653
LeftFoot  -5.79396 0.466223 -8.89243
LeftToes  1.06245e-005 4.65868e-005 -8.65517e-006
944
root  7.89853 37.9087 14.8135 -11.7834 88.2539 -12.8773
RightUpLeg  -26.6786 -16.2336 -6.53033
RightLeg  34.5648 -5.01746 -3.96463
RightFoot  -5.13739 -0.292599 4.69279
RightToes  0.000481921 0.542163 -0.142578
Spine  44.8903 -0.641374 4.47198
Spine1  -10.9352 0.809561 1.62598
HEad  -33.9705 1.54094 -0.369331
LeftShoulder1  8.02124 -14.1806 -39.1538
LeftArm  -0.277991 -11.3185 -38.335
LeftForeArm  -176.149 -59.0219 -164.644
LeftHand  -0.25398 0.0180481 5.50724
RightShoulder  4.60929 9.93628 28.2938
RightArm  0.728841 5.92771 45.4958
RightForeArm  166.019 61.0995 161.691
RightHand  -1.31784 3.25069 -17.8738
LeftUpLeg  -25.2192 9.70852 9.81292
LeftLeg  33.4717 5.50188 4.26127
LeftFoot  -5.01556 0.565595 -9.66376
LeftToes  1.06245e-005 4.65868e-005 -8.65517e-006
945
root  7.88808 37.888 15.4844 -18.6447 87.3931 -19.3412
RightUpLeg  -26.8666 -16.7563 -4.58767
RightLeg  35.2962 -4.4652 -3.65296
RightFoot  -5.88414 -0.154188 2.40332
RightToes  0.000481921 0.542163 -0.142578
Spine  45.0654 -0.687699 4.91379
Spine1  -10.5574 0.877625 1.74935
HEad  -33.7503 2.08826 -0.276476
LeftShoulder1  8.00852 -14.1415 -39.1809
LeftArm  -0.736086 -11.1683 -38.4303
LeftForeArm  -176.501 -59.1237 -164.554
LeftHand  -0.25398 0.0180481 5.50724
RightShoulder  4.6869 10.1211 28.4004
RightArm  1.11858 6.72493 45.4759
RightForeArm  165.696 61.5516 161.334
RightHand  -1.32849 3.29676 -17.9229
LeftUpLeg  -24.4309 9.09793 11.7008
LeftLeg  33.21 6.10642 4.64182
LeftFoot  -4.2252 0.680599 -10.5138
LeftToes  1.06245e-005 4.65868e-005 -8.65517e-006
946
root  7.89873 37.897 16.1795 -20.7964 87.2256 -21.2064
RightUpLeg  -26.5036 -17.1703 -3.35411
RightLeg  35.4302 -4.26988 -3.52245
RightFoot  -6.86926 -0.129278 2.13543
RightToes  0.000481921 0.542163 -0.142578
Spine  45.1375 -0.802196 4.91725
Spine1  -10.3574 0.6801 2.08133
HEad  -33.1699 2.3546 0.191184
LeftShoulder1  8.01672 -14.1166 -39.2864
LeftArm  -0.702473 -11.0259 -38.716
LeftForeArm  -176.537 -59.5039 -164.323
LeftHand  -0.25398 0.0180481 5.50724
RightShoulder  4.74139 10.1694 28.6851
RightArm  1.46688 7.04533 45.2202
RightForeArm  165.507 61.7702 161.154
RightHand  -1.35911 3.46047 -18.0011
LeftUpLeg  -23.8431 7.41265 13.0037
LeftLeg  32.7881 7.83862 5.75127
LeftFoot  -3.21906 0.690748 -9.4848
LeftToes  1.06245e-005 4.65868e-005 -8.65517e-006
947
root  7.92261 37.9527 16.8421 -22.6589 87.6151 -23.2297
RightUpLeg  -26.3961 -17.7313 -2.35988
RightLeg  35.3382 -4.12761 -3.40457
RightFoot  -7.48659 -0.132016 2.40367
RightToes  0.000481921 0.542163 -0.142578
Spine  44.9315 -0.98745 4.77184
Spine1  -10.3917 0.336569 2.42272
HEad  -32.8061 2.24181 0.707998
LeftShoulder1  8.09233 -14.1413 -39.6331
LeftArm  -0.231148 -10.9428 -39.0356
LeftForeArm  -176.195 -59.7228 -164.219
LeftHand  -0.25398 0.0180481 5.50724
RightShoulder  4.69213 10.0029 28.749
RightArm  1.72195 6.85167 45.034
RightForeArm  165.51 61.6482 161.244
RightHand  -1.40019 3.69671 -18.07
LeftUpLeg  -24.0986 5.06973 13.524
LeftLeg  32.7882 11.3715 8.13947
LeftFoot  -1.87826 0.513473 -6.08861
LeftToes  1.06245e-005 4.65868e-005 -8.65517e-006
948
root  7.93413 38.0506 17.4343 -28.2489 88.0752 -29.1762
RightUpLeg  -26.4649 -18.227 -1.24083
RightLeg  35.0247 -4.20565 -3.42622
RightFoot  -7.89301 -0.110185 1.87453
RightToes  0.000481921 0.542163 -0.142578
Spine  44.589 -1.20918 4.75507
Spine1  -10.383 0.00518842 2.70135
HEad  -33.0359 2.06371 0.955724
LeftShoulder1  8.18735 -14.188 -40.0277
LeftArm  0.407943 -10.9538 -39.4775
LeftForeArm  -175.927 -59.6224 -164.303
LeftHand  -0.25398 0.0180481 5.50724
RightShoulder  4.58246 9.79943 28.4493
RightArm  1.81296 6.48552 44.9526
RightForeArm  165.417 61.3717 161.438
RightHand  -1.43905 3.89446 -18.1797
LeftUpLeg  -25.0357 3.84924 13.2789
LeftLeg  33.7013 13.9798 10.1776
LeftFoot  -1.15541 0.282437 -3.0517
LeftToes  1.06245e-005 4.65868e-005 -8.65517e-006
949
root  7.92885 38.1883 17.9675 -35.7374 88.4029 -36.8028
RightUpLeg  -26.0998 -18.5297 -0.251419
RightLeg  34.1919 -4.51799 -3.55502
RightFoot  -8.07403 -0.084352 1.04322
RightToes  0.000481921 0.542163 -0.142578
Spine  44.4272 -1.3652 4.698
Spine1  -10.1293 -0.222434 2.81688
HEad  -33.5457 1.99885 0.934323
LeftShoulder1  8.23193 -14.2131 -40.2036
LeftArm  1.11825 -11.0597 -40.143
LeftForeArm  -175.911 -59.5209 -164.366
LeftHand  -0.25398 0.0180481 5.50724
RightShoulder  4.50977 9.71923 28.0996
RightArm  1.69421 6.19497 44.6724
RightForeArm  165.082 61.2169 161.519
RightHand  -1.46387 3.98139 -18.3203
LeftUpLeg  -25.9633 4.91158 11.9387
LeftLeg  35.2181 12.8891 9.93505
LeftFoot  -2.30038 0.232963 -2.81407
LeftToes  1.06245e-005 4.65868e-005 -8.65517e-006
950
root  7.93037 38.3468 18.4453 -40.8147 88.6852 -41.8294
RightUpLeg  -25.3585 -18.9835 0.42255
RightLeg  33.0012 -4.61406 -3.47703
RightFoot  -7.86459 -0.0710317 0.582724
RightToes  0.000481921 0.542163 -0.142578
Spine  44.4403 -1.41991 4.48989
Spine1  -9.83739 -0.349964 2.75941
HEad  -33.8203 1.94222 0.813537
LeftShoulder1  8.22755 -14.2102 -40.1874
LeftArm  1.91581 -11.186 -40.8383
LeftForeArm  -175.732 -59.6693 -164.291
LeftHand  -0.25398 0.0180481 5.50724
RightShoulder  4.48855 9.69638 27.9948
RightArm  1.46717 6.00313 44.1215
RightForeArm  164.727 61.2616 161.453
RightHand  -1.46604 3.96281 -18.3809
LeftUpLeg  -26.5879 7.65316 9.42135
LeftLeg  36.8865 9.88524 8.23403
LeftFoot  -4.73839 0.259262 -3.98823
LeftToes  1.06245e-005 4.65868e-005 -8.65517e-006
